<?xml version="1.0" encoding="UTF-8" standalone="no"?>
<!-- Created with Inkscape (http://www.inkscape.org/) -->

<svg
   xmlns:dc="http://purl.org/dc/elements/1.1/"
   xmlns:cc="http://creativecommons.org/ns#"
   xmlns:rdf="http://www.w3.org/1999/02/22-rdf-syntax-ns#"
   xmlns:svg="http://www.w3.org/2000/svg"
   xmlns="http://www.w3.org/2000/svg"
   xmlns:sodipodi="http://sodipodi.sourceforge.net/DTD/sodipodi-0.dtd"
   xmlns:inkscape="http://www.inkscape.org/namespaces/inkscape"
   width="272.27911mm"
   height="264.71393mm"
   viewBox="0 0 964.76851 937.96273"
   id="svg4520"
   version="1.1"
   inkscape:version="0.91 r13725"
   sodipodi:docname="hospital-2.svg">
  <defs
     id="defs4522" />
  <sodipodi:namedview
     id="base"
     pagecolor="#ffffff"
     bordercolor="#666666"
     borderopacity="1.0"
     inkscape:pageopacity="0.0"
     inkscape:pageshadow="2"
     inkscape:zoom="0.35"
     inkscape:cx="-105.19265"
     inkscape:cy="601.66776"
     inkscape:document-units="px"
     inkscape:current-layer="layer1"
     showgrid="false"
     fit-margin-top="0"
     fit-margin-left="0"
     fit-margin-right="0"
     fit-margin-bottom="0"
     inkscape:window-width="1536"
     inkscape:window-height="801"
     inkscape:window-x="-8"
     inkscape:window-y="-8"
     inkscape:window-maximized="1" />
  <metadata
     id="metadata4525">
    <rdf:RDF>
      <cc:Work
         rdf:about="">
        <dc:format>image/svg+xml</dc:format>
        <dc:type
           rdf:resource="http://purl.org/dc/dcmitype/StillImage" />
        <dc:title></dc:title>
      </cc:Work>
    </rdf:RDF>
  </metadata>
  <g
     inkscape:label="Layer 1"
     inkscape:groupmode="layer"
     id="layer1"
     transform="translate(539.52711,396.61916)">
    <g
       id="g5188">
      <path
         id="imagebot_23"
         d="m -338.4871,-185.68134 c -72.14596,0.50047 -132.83077,-79.57676 -141.4139,118.47575 -4.24892,113.931693 -18.2283,199.17804 -20.64236,300.40108 2.57787,65.52377 3.10402,132.89082 5.32684,198.30097 -0.8071,39.2462 -17.86929,94.05861 -7.21556,106.41964 29.1784,11.21509 113.04042,-9.00888 147.00054,-5.23613 126.06309,3.4444 236.48218,-2.90371 356.20719316,4.10243 47.25296284,-4.31751 110.09220684,2.02437 157.42577684,0.29115 73.58354,-3.07235 196.4206,8.05152 266.45283,-0.58624 6.1248,-190.18278 -37.41098,-416.66311 -49.68179,-558.781346 -2.36638,-52.291708 1.35286,-73.581793 -0.63037,-125.574024 -11.97049,-35.05338 -106.30127,-9.3057 -123.65193,-13.57997 -25.09338,8.94887 -63.90456,-1.30792 -93.22557,-9.08966 -24.03264,-2.53531 -42.75969,-17.65007 -64.317302,-12.63453 -34.974635,0.66333 -77.337051,-4.12104 -113.175503,-2.02334 -41.825431,2.25241 -74.220194,21.18903 -114.866355,19.49343 -20.77469,3.97902 -52.52078,3.14846 -80.97839,-2.83365 -41.35103,-18.36706 -84.70548,-16.68532 -122.61415,-17.14556 z"
         stroke-miterlimit="4"
         label="Capa 1"
         inkscape:connector-curvature="0"
         style="fill:#e9d3c6;fill-rule:nonzero;stroke-width:8;stroke-linejoin:round;stroke-miterlimit:4;stroke-dashoffset:0" />
      <path
         id="imagebot_22"
         d="m 206.78057,153.02818 c 14.26937,0.75187 28.78445,-2.34745 43.10343,-2.12141 11.40144,-1.77535 22.9612,-2.33612 34.27582,-2.7113 11.22653,-1.3018 22.36442,-0.38221 33.47462,-0.30836 11.69483,0.90203 15.98008,9.33358 12.30772,16.29968 -2.00521,7.38842 -3.37169,14.8381 -2.69339,22.18055 -0.54998,10.04566 -5.80483,20.35266 -3.41204,30.21566 2.91355,7.24227 2.02758,15.31817 -2.93555,22.57675 -3.55663,9.35096 2.58349,19.39777 -6.11762,28.2162 -8.73043,5.89097 -21.89193,4.79354 -32.64403,7.1749 -11.34409,1.4647 -22.45889,4.94464 -33.97056,4.68132 -12.68986,1.92438 -25.54454,5.79614 -38.41266,4.52337 -9.70542,1.58327 -22.8868,2.32256 -27.92032,-3.99347 -6.23546,-9.1469 -1.54535,-19.79111 0.13485,-29.69291 1.40075,-8.70591 2.06425,-17.42631 2.99023,-26.11918 -1.66564,-6.11476 -0.31531,-12.30804 3.3379,-18.3136 2.37635,-7.1579 2.50359,-14.45017 3.86406,-21.60451 -1.42389,-7.26123 -0.32384,-15.08964 5.07649,-22.03776 0.51498,-3.55883 2.29469,-9.18723 9.54105,-8.96593 z m -14.73865,31.00432 c -0.39099,-0.41252 -0.34487,-0.36367 0,0 z m -0.76548,1.62633 c -2.16324,0.40997 0.87802,-1.45114 0,0 z m -0.97869,-0.56557 c -0.33319,-0.67208 1.2893,0.18976 0,0 z m -1.5719,15.99044 c 1.36507,0.69546 -1.43493,0.43187 0,0 z m -1.39254,3.69194 -1.21831,-0.14874 1.21831,0.14874 z m 1.90357,0.45417 c -1.15877,2.02693 -1.80946,-1.19062 0,0 z m -0.90444,3.88576 c -2.74667,0.87071 0.54757,-1.46075 0,0 z m -1.5335,1.16902 c -3.87436,1.07317 1.91208,-2.39574 0,0 z m -1.46999,0.71341 -0.46798,0.21235 0.46798,-0.21235 z m 1.18951,0.77837 c 1.45339,1.7361 -2.04692,0.68633 0,0 z m 5.70521,73.00271 c 1.09105,-0.99809 0.011,0.8564 0,0 z m 28.11071,-1.09106 c 2.39409,-1.30581 1.08578,1.09473 0,0 z m 6.72221,-0.7542 c 0.85364,-1.315 0.99421,1.1454 0,0 z m 1.38463,-0.0207 c 3.31197,0.32203 -1.67636,2.14735 0,0 z m 40.6592,-5.73239 0.5525,0.0154 -0.5525,-0.0154 z m 15.99176,-3.25477 c 2.62054,-0.1693 -5.81389,1.4013 0,0 z m 32.22161,-9.17188 c 0.60913,-2.05525 2.18948,0.72763 0,0 z m 1.9885,-5.20251 0.0969,0.0349 -0.0969,-0.0349 z m 8.13781,-72.76338 c 1.00019,-1.14626 0.0823,2.26826 0,0 z m 0.20149,-0.32983 c -1.64305,0.23093 0.57804,-0.8908 0,0 z m -1.06201,-7.46224 c -0.47936,0.43499 -0.08,-0.45905 0,0 z m 0.57451,-9.56037 c 1.91111,-1.06554 1.48109,1.37953 0,0 z m -117.63123,-15.05848 -0.16328,0.0526 0.16328,-0.0526 z m 13.03036,-1.71092 c -2.44106,-1.16593 -1.2946,1.37329 0,0 z m -17.19525,8.25719 c -1.51422,-0.29793 0.27773,0.94205 0,0 z m -0.94218,0.16049 c -1.78448,-0.23719 0.81282,0.90745 0,0 z m 116.15666,-12.0938 c -0.22715,0.79251 1.14772,-0.52516 0,0 z M 192.2158,172.00559 c -2.7656,0.85299 2.41294,0.73538 0,0 z m 1.55252,8.71308 c -0.81128,1.4704 2.80106,-1.83893 0,0 z M 328.37957,166.4557 c -5.33055,1.48159 3.47545,-0.0544 0,0 z m -1.17506,7.7858 c -1.57853,1.064 1.9262,-0.0972 0,0 z m -136.66797,26.28449 c 0.94461,0.3102 0.45605,-1.01543 0,0 z m -5.47054,18.02879 c -4.6938,0.87605 2.15263,2.22844 0,0 z m 137.50163,-3.76509 -0.41868,0.1127 0.41868,-0.1127 z m -4.08892,43.83085 c -1.44383,0.42374 1.45933,0.54482 0,0 z m -13.70598,6.28618 c -1.55604,1.20066 2.27714,0.22564 0,0 z m -99.35702,16.31658 c -3.06223,0.5378 0.78814,2.15283 0,0 z m -5.48771,1.07988 c -2.45172,3.44406 5.23047,-1.80743 0,0 z m -6.61322,1.3365 c -0.06,1.24265 1.7603,-0.95452 0,0 z m 13.87936,-1.61061 c -0.44509,0.77224 1.93744,-0.86386 0,0 z m -7.18214,1.54265 c -0.1516,0.45603 0.72782,-0.3188 0,0 z m 5.75118,-0.11306 c -2.93449,1.15483 2.65687,-0.0447 0,0 z m 94.16164,-12.40558 c -1.58037,-0.77723 -0.34989,0.91617 0,0 z m 8.92231,-1.17653 c -1.69335,1.52991 3.95372,-1.19813 0,0 z"
         label="Capa 1"
         inkscape:connector-curvature="0"
         style="fill:#9788af;fill-rule:evenodd;stroke-width:1px" />
      <path
         id="imagebot_21"
         d="m 331.27528,346.02626 c -11.62329,-3.44125 -24.8788,-3.44152 -37.41233,-3.677 -20.7963,1.71991 -41.25218,-3.30433 -62.10251,-1.95437 -10.90385,0.53084 -22.04869,-0.36554 -32.73977,1.25097 -8.5455,4.85385 -3.11623,14.10321 -3.91055,20.69856 -1.10092,9.62369 -3.45601,19.22323 -5.82227,28.73242 -0.0394,7.82416 -3.20935,15.50138 -5.49526,23.12183 -5.25141,10.33189 2.55767,21.38536 -3.33016,31.69047 -2.31616,8.21845 -4.86591,16.6664 -3.50842,25.01314 4.47041,8.04589 21.74388,3.93073 29.96108,9.53469 11.9924,3.47241 25.80565,0.8782 38.02517,3.8969 14.01541,2.08633 28.51404,0.88504 42.76304,1.35563 10.34854,-0.80047 26.00968,6.99183 32.26528,-1.81467 3.37175,-9.98658 9.05984,-20.42819 4.54868,-30.62396 -2.1025,-6.81304 0.0614,-13.68982 0.57047,-20.48476 -0.52159,-8.27711 -0.8079,-16.69009 2.70436,-24.74234 0.82811,-8.28146 -2.68986,-16.62054 0.34826,-24.84756 2.22488,-7.16245 3.88229,-14.40389 4.10262,-21.69075 1.74589,-4.97284 6.88544,-11.44361 -0.96769,-15.4592 z m -1.46701,29.6114 0.58953,0.0404 -0.58953,-0.0404 z M 326.2543,462.849 c -0.84473,1.65021 2.69185,-0.29479 0,0 z m -1.59058,4.04802 c 0.92608,0.58801 -1e-5,-0.57943 0,0 z m 0.52449,-0.0116 c 2.98143,0.97191 -0.6423,-1.19798 0,0 z m 0.0602,0.0348 0.52307,-0.0122 -0.52307,0.0122 z m 0.53972,-0.0213 c 0.99352,-0.18377 0.64095,-0.11858 0,0 z m -0.45139,0.0775 -0.076,0.01 0.076,-0.01 z m -0.076,0.01 -0.41681,0.0193 0.41681,-0.0193 z m 0.0421,0.87588 c 1.34511,-0.61887 -1.44324,-0.42397 0,0 z M 321.57,478.91218 c 0.92068,-0.36702 -1.15472,-0.63237 0,0 z m 0.07,-0.39664 c 0.2911,-0.63744 -1.4703,-0.24948 0,0 z m -1.24374,1.60448 c -0.95951,0.0183 0.84433,0.45114 0,0 z m -24.93684,5.87053 c -0.81386,-0.12662 0.51053,0.60563 0,0 z m -6.32423,-0.5489 c 0.17601,0.4908 0.61718,-0.48746 0,0 z m 0.12653,0.13608 c -2.69611,0.28206 1.42096,0.97937 0,0 z m -2.05891,0.12051 c -2.20579,0.42781 1.02641,0.29259 0,0 z m -91.14587,-9.32342 c -2.56032,-0.22051 1.01453,1.67614 0,0 z m -3.0588,-0.0535 c -1.56586,0.4093 1.53595,0.7564 0,0 z m -0.76143,-0.15457 -0.18104,0.0429 0.18104,-0.0429 z m -9.31378,-37.28407 c 2.05248,-0.20068 -1.59602,-0.87838 0,0 z m 12.2364,-89.59283 c -0.97727,-0.54048 -0.33372,0.47878 0,0 z m -0.44788,0.0693 -0.54743,0.18041 0.54743,-0.18041 z m -0.1251,-0.0205 c 2.6409,-0.56803 -1.83127,-0.78622 0,0 z m 0.0363,-1.73056 c 3.0787,-0.48029 -2.87934,-0.89827 0,0 z m 0.38063,-0.72201 c 1.37825,1.33219 -0.25926,-0.75582 0,0 z m 0.0966,-1.99678 c -0.63646,-0.17075 0.096,0.74278 0,0 z m 128.81144,-0.8357 c 0.75279,-0.13407 -0.60282,-0.4653 0,0 z m 0.2975,-0.11927 0.0426,0.11737 -0.0426,-0.11737 z m 1.7458,9.71766 c -1.73755,1.67798 -2.00208,-2.04682 0,0 z m -6.25392,-1.53177 -0.10626,0.22423 0.10626,-0.22423 z m -0.002,0.29721 c 0.92454,0.53764 -0.91314,0.07 0,0 z m -0.1441,-0.0374 c -0.20832,0.50673 -0.64648,-0.52163 0,0 z m 1.1295,0.67028 c -1.65327,0.83487 -1.27769,-0.9099 0,0 z m -0.56564,-0.20096 c -3.93302,-2.16179 0.35547,1.06059 0,0 z m -3.54074,-0.18421 c 0.61039,1.89082 -0.81002,4.2273 0,0 z M 196.1258,343.12406 c 2.40212,0.2324 -2.42449,1.0541 0,0 z m 130.51677,64.46925 c 0.47102,0.72362 -0.88409,-0.0171 0,0 z m -0.9078,55.57764 c 0.81909,0.52001 -1.31507,0.0648 0,0 z"
         label="Capa 1"
         inkscape:connector-curvature="0"
         style="fill:#9788af;fill-opacity:1;fill-rule:evenodd;stroke-width:1px" />
      <g
         transform="matrix(-1.3272998,-6.630159e-4,-6.630159e-4,1.3272998,469.80137,-1295.6786)"
         id="imagebot_19"
         display="inline"
         label="Capa 1"
         style="display:inline">
        <path
           id="imagebot_20"
           d="m 580.51716,677.67348 c -30.21742,-0.24197 -52.85182,1.22069 -82.94452,1.14289 -39.6716,2.71723 -82.64618,-1.80129 -121.70748,2.40364 -34.75927,2.67149 -64.32589,-3.52941 -98.2246,0.16227 -43.64687,7.65914 -80.85457,-5.17104 -109.55486,0.1846 -12.74922,10.31616 -45.62661,20.8372 -58.17333,59.65332 -5.5819,17.26889 -23.20415,22.09806 -25.79523,45.90234 -6.05036,24.30793 -32.63062,70.81165 -32.63062,70.81165 0,0 62.91155,6.25022 91.38019,7.20579 32.29533,-1.02197 69.32123,-8.05171 101.58649,-8.02188 32.6595,0.0302 63.65906,0.29191 92.0549,0.49445 24.49426,0.17471 56.73864,-5.76412 75.22786,-5.20827 46.38278,1.96422 97.47666,7.27309 133.71376,5.79387 24.30874,-0.9923 57.59984,-13.03736 82.53866,-11.13913 25.80776,1.72616 52.05062,11.29919 69.66721,12.46156 19.39725,1.27986 40.07612,-2.71746 62.35216,0.70661 -0.2516,-7.55873 -8.07836,-19.16699 -15.21691,-27.81795 -18.89176,-13.75019 -17.45154,-28.19847 -31.06151,-44.57778 -6.88821,-8.2898 -23.52955,-23.86267 -34.39583,-35.06154 -6.89419,-16.61328 -23.01545,-31.88938 -39.77869,-46.96137 -8.42565,-10.77287 -21.739,-26.22776 -21.739,-26.22776 0,0 -30.0731,-1.88087 -37.29865,-1.90729 l 0,-2e-5 z"
           stroke-miterlimit="4"
           inkscape:connector-curvature="0"
           style="fill:#d85454;fill-rule:nonzero;stroke-width:8;stroke-linejoin:round;stroke-miterlimit:4;stroke-dashoffset:0" />
      </g>
      <path
         id="imagebot_18"
         d="m 110.07582,156.69183 c -13.957471,1.35179 -27.706164,-1.91903 -41.556932,-1.00907 -14.167733,-1.07698 -27.91048,-2.95215 -42.15215,-2.1945 -10.678907,-1.94943 -21.1151094,0.0632 -31.9158364,-0.18765 -11.3498606,0.28076 -22.4218456,5.40507 -21.4633086,12.16096 -0.967715,8.30847 1.966543,16.66418 -1.172005,24.87587 -2.500173,11.9936 1.317645,24.23176 -2.77807,36.11837 -4.164138,6.02573 -7.273398,12.34682 -2.813226,18.6861 3.398226,9.17455 -2.001672,18.32 -1.345196,27.51172 -1.181065,7.81767 11.892682,11.69659 24.187949,11.76498 12.2242646,1.8827 24.729014,3.07383 36.870286,5.3953 13.132026,-0.87824 24.628707,3.53381 37.476832,4.12364 12.850688,1.20153 25.916713,0.66797 38.875217,0.83349 7.46275,-3.68912 12.74146,-9.45798 14.08265,-14.85132 1.02832,-9.79713 1.09987,-19.62087 0.50477,-29.4276 3.08171,-8.54687 -0.29533,-17.50894 4.62931,-25.92039 1.81104,-6.1624 -3.87475,-11.82354 -2.49575,-18.42211 -1.15334,-5.8188 2.06553,-11.47606 -0.18962,-17.26464 2.21192,-5.43682 5.75319,-11.064 2.14621,-16.73422 -4.42603,-4.96587 1.7206,-13.05715 -9.50174,-15.4161 l -1.38939,-0.0428 0,0 0,-6e-5 z m 9.67382,32.30733 c 0.5979,-0.51443 0.37014,-0.31842 0,0 z m 0.49875,1.69481 c 2.33846,0.63721 -0.18653,-2.2336 0,0 z m 1.18979,-0.61565 c 0.616,-0.53752 -1.39615,-0.0885 0,0 z m -1.61335,16.78951 c -1.31639,0.9192 1.3304,0.3738 0,0 z m 0.75473,3.85475 1.31126,-0.17479 -1.31126,0.17479 z m -2.17916,0.51794 c 1.37794,1.98046 2.2152,-1.26643 0,0 z m 0.17906,4.06894 c 2.9163,0.39779 -0.46819,-1.31572 0,0 z m 1.43539,1.19756 c 4.46723,1.05533 -1.75347,-2.80474 0,0 z m 1.46089,0.71954 0.50026,0.22815 -0.50026,-0.22815 z m -1.46501,0.84394 c -1.4922,1.91806 1.97569,0.76422 0,0 z m -21.471385,76.92222 c -1.223199,-0.71618 0.150816,0.8718 0,0 z m -30.554649,-0.55547 c -2.802483,-0.96373 -1.227313,1.06089 0,0 z m -7.203681,-0.65184 c -0.83063,-1.34401 -1.52206,1.18421 0,0 z m -1.511682,0.008 c -3.671824,0.56463 1.111207,2.29057 0,0 z m -43.327655,-5.17396 -0.676179,0.0311 0.676179,-0.0311 z m -16.83265042,-3.08716 c -3.12272698,-0.36309 4.78958102,1.35766 0,0 z M -34.261856,276.56205 c -0.637097,-1.94854 -2.39209,0.64908 0,0 z m -1.092658,-5.43138 -0.112763,0.0389 0.112763,-0.0389 z m 6.263199,-76.3787 c -0.533601,-1.1908 -1.030481,1.98345 0,0 z m -0.151284,-0.34278 c 1.76444,-0.11931 -0.517081,-0.75509 0,0 z m 2.719222,-7.87295 c 0.54485,0.34708 0.0937,-0.45111 0,0 z m 1.364386,-10.04581 c -2.328731,-1.09127 -2.600739,1.42528 0,0 z m 131.950301,-18.32096 0.1671,0.052 -0.1671,-0.052 z m -13.911951,-1.5254 c 3.557264,-0.68399 0.512048,1.38545 0,0 z m 17.107261,8.3246 c 1.69361,-0.0316 -0.49344,0.84129 0,0 z m 0.99825,0.14904 c 1.9136,0.001 -1.17617,0.81395 0,0 z M -13.688013,154.84184 c 0.224988,0.73432 -1.264567,-0.3131 0,0 z m 135.754553,21.50794 c 3.06853,0.98456 -3.12534,1.04333 0,0 z m -3.51706,9.19925 c 0.90491,1.30051 -2.69088,-1.22779 0,0 z M -25.879211,173.38042 c 6.439558,2.09408 -4.726822,-0.46734 0,0 z m -0.337305,8.16621 c 1.301743,1.12401 -1.998663,-0.0639 0,0 z m 144.174306,24.77249 c -0.64479,0.35497 -0.99801,-0.86304 0,0 z m 2.23066,18.8518 c 4.7141,1.21501 -2.91679,2.10779 0,0 z m -149.783117,-1.06354 0.434862,0.10976 -0.434862,-0.10976 z m -4.663197,46.02577 c 1.387135,0.38847 -1.508619,0.71267 0,0 z m 13.69757,6.32452 c 1.381682,1.27483 -2.508919,0.46037 0,0 z m 105.396209,15.07206 c 2.785378,0.74644 -1.105653,1.93554 0,0 z m 5.783799,1.02044 c 2.909793,3.32611 -6.438193,-1.22916 0,0 z m 6.963107,1.2667 c 0.115601,1.1313 -2.0266,-0.55763 0,0 z m -14.862448,-1.40195 c 0.89659,0.60694 -1.961468,-0.36627 0,0 z m 7.542872,1.47158 c 0.203513,0.40606 -0.808947,-0.16111 0,0 z m -6.274094,0.002 c 2.286576,1.28602 -2.365531,-0.14501 0,0 z m -100.5227,-11.06655 c 2.184929,-0.2354 -0.391263,0.68718 0,0 z m -9.524867,-1.04975 c 1.796166,1.35173 -3.805867,-0.5929 0,0 z"
         label="Capa 1"
         inkscape:connector-curvature="0"
         style="fill:#9788af;fill-rule:evenodd;stroke-width:1px" />
      <path
         id="imagebot_17"
         d="m 20.828837,361.66642 c 1.782932,-0.86415 -0.533098,-4.8083 0.03438,-0.76697 l -0.03438,0.76697 z m 1.393468,0.0648 c -5.976814,0.62792 -12.61971,2.82007 -19.069517,2.23163 -10.651406,0.40867 -21.205547,2.49087 -31.512266,3.72638 -2.904746,2.4947 -6.288585,-1.03191 -9.568974,1.34737 -7.202444,-0.31335 -14.950119,2.03707 -22.026505,3.20805 -4.068578,-0.84551 -9.447493,3.38697 -9.579779,6.36099 l 0.300438,2.92771 c 1.326129,15.3555 -0.315413,31.85549 -0.6989,47.44545 0.975407,17.60154 0.682925,32.58077 2.66767,50.10671 -0.486492,16.20076 -7.429145,49.9358 4.577283,60.49385 8.777997,3.21221 23.996081,-4.16018 32.791505,-5.2e-4 13.702073,2.05873 27.483502,-1.19874 41.121694,0.82239 5.707807,-0.81361 11.732562,1.67996 17.147831,-0.057 8.209825,-6.85478 2.550312,-18.04192 2.351722,-26.86995 -3.272431,-27.96594 0.656201,-56.25483 -2.272855,-84.1708 -1.957383,-12.44535 -1.63703,-25.16487 -0.273363,-37.71053 -3.388231,-2.74032 1.528495,-4.99393 0.196464,-8.33598 -1.255491,-6.62353 3.248379,-14.56988 -1.517822,-20.17523 -1.262778,-1.04553 -3.034302,-1.59767 -4.634626,-1.35032 z m -40.905199,4.39157 c 2.179711,-2.02238 -1.132325,-6.1554 0,0 z"
         label="Capa 1"
         inkscape:connector-curvature="0"
         style="fill:#c1573a;fill-rule:evenodd;stroke-width:1px" />
      <path
         d="m -158.7762,362.08676 c -7.0704,-1.58862 -11.60985,6.51064 -11.86096,13.13879 -0.32037,6.73392 1.01118,13.44232 0.3569,20.21035 -1.061,23.82517 -6.69684,47.12333 -7.29577,71.00496 -0.74323,11.27444 -0.0943,22.71587 -2.96144,33.70847 -2.12158,9.18689 -2.43004,18.707 -4.93988,27.791 -2.42402,11.46204 10.87913,12.35691 18.19168,11.05875 14.36853,0.94876 28.80453,1.55003 43.22872,1.36268 10.75898,-0.14971 21.5788,0.42012 32.2857,-0.78138 10.642781,-2.36182 15.805947,3.91415 17.993458,-4.31658 0.569944,-24.311 -2.294164,-58.5289 -2.066905,-82.86918 -0.05079,-8.4306 -2.025372,-27.88389 -0.730161,-36.11221 0.704428,-10.8658 -0.390206,-26.2145 2.327741,-36.91665 -1.067998,-10.61401 -14.584795,-6.62133 -22.171281,-5.8498 -8.970882,-1.03975 -17.264172,-6.25894 -26.464952,-5.50097 -12.06664,-1.14201 -24.05993,-3.14837 -35.89285,-5.92823 z m 23.22923,4.35925 c -0.21997,1.72934 2.44772,-1.64537 0,0 z m 56.856247,9.727 c -366.815797,136.02084 -183.407897,68.01041 0,0 z m -93.349877,40.96067 -0.01,0.007 0.01,-0.007 z m 88.826528,0.17484 c 0.686545,0.31172 -0.76976,0.32114 0,0 z m -98.471878,87.61052 c -0.73942,0.23645 0.65087,0.0566 0,0 z m 0.66433,4.5401 c 0.72969,1.02509 -1.35979,-0.0132 0,0 z m 1.07352,20.59078 c 0.98979,0.8142 -1.10488,0.35798 0,0 z m 89.357821,1.18077 c 0.19983,0.5406 -1.023889,-0.42382 0,0 z m 1.246933,0.33503 c 1.242391,0.0175 -1.01135,0.90021 0,0 z m -56.119564,0.31355 c 1.15152,-2.23518 0.62803,1.73698 0,0 z m 14.5877,0.007 1.36577,0.061 z m 2.8937,10e-4 c 1.55858,-1.17083 2.51264,2.31948 0,0 z m 5.0392,0.003 c 0.15907,-0.74154 0.42406,0.47487 0,0 z m -55.43122,0.82847 c 0.89045,-0.30569 -0.48404,0.86734 0,0 z m 85.907951,1.31434 0.03598,0.037 z m -0.207683,0.36509 c 0.923271,-0.14159 -0.358899,0.79829 0,0 z m -91.177048,3.87988 0.0598,0.31781 z m 7.4978,0.60151 c -2.17668,0.15611 1.54293,0.93876 0,0 z m 84.46696,0.50002 -0.247233,0.0666 z m -34.40673,0.0442 c 0.64173,-0.64645 -0.0104,0.7448 0,0 z m 28.630081,0.45307 c -2.482001,-1.60579 -0.650051,1.49954 0,0 z m -40.348631,0.0539 c -2.32647,-0.65767 1.00147,1.06 0,0 z m 19.33763,0.1496 c 0.40842,0.74881 -1.30758,-0.45033 0,0 z m -29.40728,0.14198 -0.026,0.018 z"
         id="imagebot_16"
         label="Capa 1"
         inkscape:connector-curvature="0"
         style="fill:#c1573a;fill-rule:evenodd;stroke-width:1px" />
      <path
         id="imagebot_15"
         d="m -431.30246,351.9181 c 18.92202,-4.06563 39.79922,-2.60899 59.5804,-2.1147 20.46629,-0.31218 40.96603,-2.72954 61.39667,-0.78194 11.97785,0.50043 25.90427,-1.03387 35.74809,3.54048 2.39552,9.88669 -2.38149,19.84328 0.70179,29.73578 2.30432,10.05702 3.55442,20.17012 5.30289,30.24585 2.73762,8.27338 7.01022,16.7606 2.9519,25.13598 -1.947,10.77979 5.5132,21.25632 4.81907,32.03463 3.59646,7.3424 -7.14442,12.26235 -20.28329,12.12988 -14.11866,2.52979 -27.8034,5.83923 -43.1514,4.8246 -12.28227,0.13111 -24.05019,2.64022 -36.46227,2.09575 -13.7462,0.11587 -27.71333,-1.33151 -41.25817,0.0974 -9.99874,2.42616 -26.20006,1.89332 -26.47014,-5.49716 -2.69766,-6.89434 -4.70695,-14.01106 -5.07374,-20.99961 3.78971,-7.5338 6.02424,-15.4455 3.45105,-23.18547 0.62506,-9.277 2.57322,-18.70671 -1.38833,-27.844 0.24986,-8.74767 4.48955,-17.55739 0.4829,-26.24389 -3.35741,-7.40895 -0.47201,-15.15944 -4.38914,-22.44716 -1.8088,-3.63922 -2.54632,-8.25075 4.04172,-10.72645 z m -0.28397,28.74181 c -1.0823,0.0415 -0.69099,0.0265 0,0 z m -1.7206,84.63324 c 1.12008,1.67034 -3.3849,-0.42998 0,0 z m 1.56539,3.96019 c -1.00222,0.65302 -0.10879,-0.57578 0,0 z m -0.60444,-0.0231 c -3.52173,1.15945 0.66028,-1.24682 0,0 z m -0.0717,0.0329 -0.60295,-0.0235 0.60295,0.0235 z m -0.62139,-0.0328 -0.69481,-0.12275 0.69481,0.12275 z m 0.51558,0.0851 0.0887,0.011 -0.0887,-0.011 z m 0.0887,0.011 0.47964,0.0279 -0.47964,-0.0279 z m -0.10626,0.84829 c -1.64715,-0.5984 1.79431,-0.36601 0,0 z m 3.56983,10.79661 c -1.09652,-0.44965 1.56087,-0.46468 0,0 z m -0.0542,-0.38615 c -0.31712,-0.69952 1.74972,-0.0445 0,0 z m 1.32824,1.58345 c 1.12932,0.065 -1.09411,0.39042 0,0 z m 28.38366,6.24934 c 1.00258,-0.0608 -0.78176,0.54989 0,0 z m 7.33455,-0.39069 c -0.30504,0.48452 -0.59246,-0.54045 0,0 z m -0.15474,0.12908 c 3.2364,0.19556 -1.77227,0.98056 0,0 z m 2.36789,0.16287 c 2.83768,0.31331 -1.17645,0.3756 0,0 z m 105.80015,-7.00083 c 2.86878,-0.12041 -1.40987,1.42419 0,0 z m 3.53324,0.0166 c 1.86853,0.4642 -2.00716,0.62076 0,0 z m 0.889,-0.13284 0.20614,0.0456 -0.20614,-0.0456 z m 13.23635,-35.93987 c -2.44533,-0.21926 2.02277,-0.80249 0,0 z m -8.13968,-87.13629 c 0.97257,-0.61273 0.50578,0.50374 0,0 z m 0.51222,0.0771 c 0.89445,0.27009 0.66119,0.19965 0,0 z m 0.14702,-0.0171 c -3.20316,-0.49354 2.26702,-0.78271 0,0 z m 0.0731,-1.67866 c -3.47313,-0.59744 3.31674,-0.64639 0,0 z m -0.39099,-0.70855 c -1.40631,1.45994 -0.20829,-0.57529 0,0 z m 0.0227,-1.9381 c 0.88123,-0.077 -0.43191,0.69609 0,0 z m -148.58615,-3.69112 c -0.91342,-0.16609 0.84665,-0.3976 0,0 z m -0.335,-0.12239 -0.0568,0.1129 0.0568,-0.1129 z m -2.66322,9.38246 c 1.92743,1.5979 1.99991,-1.93414 0,0 z m 7.31886,-1.34517 0.10917,0.21991 -0.10917,-0.21991 z m -0.0193,0.28815 c -1.26472,0.42957 1.07382,0.16049 0,0 z m 0.16774,-0.0328 c 0.28639,0.51144 0.68641,-0.55445 0,0 z m -1.34802,0.62457 c 1.672,0.98968 1.47237,-0.97083 0,0 z m 0.66625,-0.18196 c 4.28159,-2.47232 0.45632,1.00025 0,0 z m 4.09823,-0.0995 c -0.85425,3.25472 0.83963,2.8605 0,0 z m 139.6322,-6.55637 c -2.78278,0.27153 2.69091,0.84062 0,0 z m -154.91345,59.58562 c -0.80767,0.6447 1.10972,0.0531 0,0 z m -2.66234,53.90427 c -0.99284,0.51737 1.57172,0.0296 0,0 z"
         label="Capa 1"
         inkscape:connector-curvature="0"
         style="fill:#9788af;fill-opacity:1;fill-rule:evenodd;stroke-width:1px" />
      <path
         id="imagebot_13"
         d="m -311.75245,148.01892 c -14.5026,2.8128 -29.08352,1.16863 -43.56209,3.54254 -11.60779,1.00175 -22.9392,-0.95146 -34.39624,1.77585 -9.57796,0.97021 -19.47016,-0.15251 -28.77539,2.75079 -11.30373,0.0491 -26.29246,3.76234 -28.96637,11.89887 -0.85788,9.0613 4.78243,17.54168 2.983,26.70046 -0.91244,12.0375 4.87456,23.38305 3.29311,35.44967 -5.05873,7.49864 -3.76768,14.41311 0.74389,20.91998 2.87291,7.69632 1.50662,15.95851 1.82295,23.9521 0.41525,9.42139 15.342,11.142 27.94035,10.03996 12.68822,0.54276 25.23091,0.66274 37.87349,1.1827 13.9191,-1.88339 26.33235,1.0909 40.1694,0.0122 11.86629,-1.1099 23.8041,-1.6595 35.60107,-3.35604 8.88913,-4.92587 13.87877,-14.25508 11.27916,-21.15174 -0.38702,-10.91694 -4.94607,-21.3235 -3.85565,-32.39694 -3.55735,-7.22505 2.73108,-15.87908 -0.73699,-22.58172 -3.72161,-5.54498 -5.73134,-13.713 -5.15829,-20.58063 -3.17047,-6.00311 -1.22891,-12.08144 -0.11817,-18.44805 -4.6061,-6.16994 -4.22733,-14.63169 -11.38182,-19.42738 -1.42687,-0.40164 -3.10966,-0.50645 -4.7554,-0.28267 z m 14.9517,30.35847 c 0.53906,-0.5904 0.31427,-0.34426 0,0 z m 0.77602,1.5935 c 2.47724,0.22846 -0.5647,-1.7739 0,0 z m 1.08954,-0.7246 c 0.45321,-0.63402 -1.39798,0.12947 0,0 z m 1.12716,16.48289 c -1.05037,1.06674 1.34812,0.16895 0,0 z m 1.38437,3.66467 1.34801,-0.32506 -1.34801,0.32506 z m -2.09524,0.73492 c 1.60677,1.78199 2.04981,-1.45745 0,0 z m 0.84446,3.93386 c 3.36684,0.19611 -0.76305,-1.3764 0,0 z m 1.63142,1.01082 c 4.41273,0.68921 -1.81883,-2.65047 0,0 z m 1.57905,0.5437 0.52735,0.16532 -0.52735,-0.16532 z m -1.3278,0.9757 c -1.09875,2.08773 2.05522,0.45308 0,0 z m -8.92037,77.01467 c -1.31769,-0.64923 0.21005,0.84887 0,0 z m -30.6561,2.70951 c -2.85497,-0.69256 -1.17032,1.19033 0,0 z m -7.31263,0.13273 c -0.99261,-1.2265 -1.35909,1.31403 0,0 z m -1.51124,0.16802 c -3.45307,0.84772 1.30719,2.18412 0,0 z m -44.18771,-0.41913 -0.65955,0.0999 0.65955,-0.0999 z m -17.34269,-1.2093 c -3.17752,-0.0256 4.96179,0.81032 0,0 z m -34.84731,-5.16604 c -0.96662,-1.84781 -2.22975,0.91214 0,0 z m -1.97968,-5.16051 -0.10627,0.0498 0.10627,-0.0498 z m -6.20469,-74.8694 c -0.70895,-1.11621 -0.72982,2.0164 0,0 z m -0.20793,-0.31686 c 1.70084,-0.25907 -0.5586,-0.72531 0,0 z m 1.43472,-7.93789 c 0.55762,0.31553 0.0747,-0.45778 0,0 z m -0.27523,-9.90481 c -2.37287,-0.84061 -2.46482,1.68183 0,0 z m 129.00611,-31.83068 0.17618,0.0325 -0.17618,-0.0325 z m -14.16619,-0.002 c 4.03428,-1.32754 0.57,1.50175 0,0 z m 18.47248,6.26828 c 1.64131,-0.28938 -0.25305,0.91244 0,0 z m 1.02299,0.0386 c 1.89,-0.29927 -0.90937,0.97179 0,0 z m -126.39473,3.27485 c 0.22824,0.72715 -1.25811,-0.23842 0,0 z m 139.31439,6.4597 c 3.23722,0.60226 -2.88185,1.38933 0,0 z m -2.01634,9.31121 c 1.07092,1.29769 -2.89758,-1.05191 0,0 z m -146.46695,3.53648 c 6.74015,1.35719 -4.76901,0.042 0,0 z m 0.99617,7.9695 c 1.33212,0.99623 -1.95565,0.0936 0,0 z m 148.26985,8.73552 c -0.60396,0.42718 -1.12914,-0.77103 0,0 z m 5.30959,18.07764 c 4.83584,0.60917 -2.35425,2.40647 0,0 z m -150.01034,14.89466 0.45313,0.0604 -0.45313,-0.0604 z m 2.84982,45.21081 c 1.41755,0.17864 -1.27683,0.89168 0,0 z m 14.73474,4.6878 c 1.53592,1.11995 -2.42493,0.70409 0,0 z m 107.89459,3.43497 c 3.12802,0.23125 -0.3438,2.4494 0,0 z m 5.95257,0.3763 c 3.21947,3.08532 -6.51172,-0.74868 0,0 z m 7.17228,0.4902 c 0.12176,1.14812 -2.02135,-0.43896 0,0 z m -15.09659,0.21844 c 0.97282,0.51771 -2.04338,-0.17809 0,0 z m 7.78587,0.62756 c 0.20929,0.39845 -0.81217,-0.10997 0,0 z m -6.27605,0.66936 c 2.4667,0.99786 -2.46363,0.12435 0,0 z m -102.36523,-0.0623 c 2.13549,-0.55069 -0.19329,0.75892 0,0 z m -9.69953,-0.007 c 1.94055,1.13553 -3.93786,-0.21919 0,0 z"
         label="Capa 1"
         inkscape:connector-curvature="0"
         style="fill:#9788af;fill-rule:evenodd;stroke-width:1px" />
      <path
         d="m -9.7320435,-309.63583 c -10.8938405,-7.32894 -18.6539185,-23.59042 -36.1777355,-24.16058 -11.35769,0.37653 -27.580239,16.68563 -39.455302,24.2159 -6.261437,2.47557 -26.399579,18.57181 -28.576829,20.47373 -2.04172,5.23928 3.30631,36.40805 2.53736,42.51837 -1.02554,22.69589 -1.36039,21.20132 -2.98116,42.75122 0.58695,8.51469 2.21771,15.01151 2.35665,23.53728 0.28188,13.25454 -1.79466,33.7554 -0.53687,46.37783 32.919226,1.35745 72.294296,-6.17908 96.951308,-8.19857 9.0650793,-0.35617 12.739931,0.34207 21.7518756,0.0549 6.1120544,-2.10865 5.1808214,-18.05862 5.9801794,-21.17722 -1.464637,-4.53063 -2.7634181,-12.57668 -1.315886,-17.84616 0.52096,-4.32424 3.202535,-7.6762 2.407178,-11.5649 0.0031,-6.2988 0.976953,-13.92071 0.735578,-20.37713 -1.578055,-13.10289 -1.145735,-22.54998 -2.219172,-35.28851 3.249886,-11.98408 7.754068,-29.56234 2.136845,-36.72564 -8.643795,-11.02262 -15.286686,-17.04804 -23.5940196,-24.59019 z"
         id="imagebot_12"
         stroke-miterlimit="4"
         label="Capa 1"
         inkscape:connector-curvature="0"
         style="fill:#e9d3c6;fill-rule:nonzero;stroke-width:8;stroke-linejoin:round;stroke-miterlimit:4;stroke-dashoffset:0" />
      <path
         d="m 2.4073851,-274.71922 c -8.7612107,-2.745 -18.5606921,-2.81429 -27.8379241,-3.06331 -15.290011,1.23329 -30.658382,-2.79259 -46.006335,-1.84818 -8.034956,0.35729 -16.318007,-0.40005 -24.142591,0.80523 -6.080075,3.74183 -1.613862,10.98531 -1.87851,16.12603 -0.343148,7.50145 -1.614615,14.97752 -2.898915,22.38304 0.35399,6.10323 -1.61421,12.0755 -2.93148,18.00809 -3.37688,8.03228 2.93684,16.69549 -0.91181,24.70355 -1.31026,6.39892 -2.78204,12.97566 -1.37011,19.49379 3.69843,6.2997 16.266928,3.17959 22.615923,7.59391 9.035406,2.77122 19.12032,0.81953 28.301616,3.23803 10.46326,1.70052 21.123021,0.83898 31.679922,1.28034 7.611184,-0.57051 19.5703657,5.58968 23.7641691,-1.24743 2.0041841,-7.7727 5.6984847,-15.88829 1.8647866,-23.86525 -1.8875759,-5.32562 -0.6246051,-10.67874 -0.5802858,-15.97663 -0.7904715,-6.45948 -1.4135515,-13.02372 0.7890099,-19.28676 0.2071483,-6.45583 -2.8015927,-12.97926 -0.9579189,-19.3811 1.294517,-5.57564 2.1655259,-11.21586 1.9720462,-16.899 1.0474322,-3.87008 4.5304389,-8.89097 -1.471593,-12.06435 z m 0.3638957,23.09142 0.4378786,0.0343 -0.4378786,-0.0343 z m 1.6385657,68.01273 c -0.5438763,1.28288 1.9755881,-0.21594 0,0 z m -0.9780045,3.14947 c 0.7134529,0.46351 -0.027905,-0.45198 0,0 z m 0.387199,-0.006 c 2.2516632,0.77368 -0.5334446,-0.93788 0,0 z m 0.046446,0.0275 0.3862874,-0.007 -0.3862874,0.007 z m 0.3980099,-0.0138 c 0.7254293,-0.13819 0.468115,-0.0892 0,0 z m -0.3299336,0.0581 -0.055688,0.007 0.055688,-0.007 z m -0.055688,0.007 -0.3072223,0.0129 0.3072223,-0.0129 z m 0.073256,0.68344 c 0.964037,-0.47575 -1.0877021,-0.33825 0,0 z m -2.2190453,8.60027 c 0.6626563,-0.28151 -0.8846712,-0.49932 0,0 z m 0.032423,-0.30906 c 0.1839424,-0.49574 -1.0990992,-0.20226 0,0 z m -0.8410848,1.24514 c -0.7083653,0.009 0.6462849,0.35632 0,0 z m -18.1479242,4.44948 c -0.607846,-0.10301 0.40702,0.47509 0,0 z m -4.702185,-0.46113 c 0.153976,0.38376 0.432442,-0.37704 0,0 z m 0.100223,0.10682 c -1.979427,0.20598 1.098345,0.77139 0,0 z m -1.516249,0.0833 c -1.609717,0.32223 0.773203,0.23359 0,0 z m -67.837979,-7.74794 c -1.903502,-0.18535 0.83207,1.31281 0,0 z m -2.263803,-0.0576 c -1.137593,0.31114 1.172393,0.59807 0,0 z m -0.570523,-0.12452 -0.131686,0.0325 0.131686,-0.0325 z m -8.709274,-29.1329 c 1.50762,-0.14585 -1.22278,-0.69351 0,0 z m 4.663838,-69.82522 c -0.748911,-0.42669 -0.223253,0.37174 0,0 z m -0.327767,0.0518 -0.395861,0.13786 0.395861,-0.13786 z m -0.09414,-0.0167 c 1.924641,-0.42936 -1.392376,-0.62286 0,0 z m -0.05755,-1.34976 c 2.252446,-0.35863 -2.172581,-0.71576 0,0 z m 0.246013,-0.56125 c 1.084168,1.04639 -0.228577,-0.59095 0,0 z m -0.02591,-1.55714 c -0.478787,-0.13651 0.107408,0.57993 0,0 z m 95.186316,0.0194 c 0.5498194,-0.10066 -0.4684285,-0.36611 0,0 z m 0.2140386,-0.0915 0.037692,0.0918 -0.037692,-0.0918 z m 1.7659355,7.58958 c -1.2024255,1.2999 -1.5800551,-1.60709 0,0 z m -4.6982744,-1.22749 -0.068586,0.17433 0.068586,-0.17433 z m 0.013585,0.23187 c 0.7098187,0.42422 -0.6716661,0.0498 0,0 z m -0.1074171,-0.0298 c -0.1294683,0.39418 -0.5034884,-0.41027 0,0 z m 0.8677713,0.52875 c -1.1814209,0.64264 -0.9890965,-0.71644 0,0 z m -0.4279693,-0.1597 c -3.0133018,-1.70686 0.3146368,0.82918 0,0 z m -2.6266434,-0.16169 c 0.5437948,1.47816 -0.392014,3.29339 0,0 z m -89.5137812,-8.07045 c 1.787204,0.19384 -1.740828,0.80966 0,0 z m 99.641276,50.97089 c 0.3835965,0.56694 -0.6544647,-0.0179 0,0 z m 2.0473602,43.34991 c 0.6310343,0.40993 -0.9689893,0.0437 0,0 z"
         label="Capa 1"
         id="imagebot_32-1"
         inkscape:connector-curvature="0"
         style="fill:#ffffff;fill-rule:evenodd;stroke-width:1px" />
      <g
         transform="matrix(8.7544589,0.00437305,-0.00437305,8.7544589,-120.58031,-294.7179)"
         id="imagebot_27">
        <path
           sodipodi:nodetypes="sszccsssszcsssszczsssczcsss"
           id="imagebot_26"
           d="m 7.738994,3.0637841 c -0.5373836,0 -0.778919,-0.2261926 -0.7922939,0.3525114 0,0 -0.067019,0.4103031 -0.029435,1.2736351 0.037582,0.8633321 -0.07448,2.0556065 -0.07448,2.0556065 L 4.5728382,6.8108597 3.3472846,6.5780913 C 2.8189131,6.4777382 3.344027,7.1353341 3.2784076,7.7098862 L 3.1322554,8.9895699 c -0.065619,0.5745514 0.091071,0.5867794 0.6284103,0.5942644 0,0 0.2542796,0.064231 0.9385385,0.2309475 0.6842587,0.1667166 1.9608896,0.02197 1.9608896,0.02197 l 0.072618,3.5183362 c 0.011945,0.578748 0.47184,0.0067 1.0052536,0.077 l 0.8956393,0.118079 c 0.5334046,0.07032 0.7784004,0.05919 0.7922939,-0.5195 0,0 -0.1054819,-1.48276 0.076163,-2.23954 0.1816457,-0.756782 0.027638,-1.1511674 0.027638,-1.1511674 0,0 0.7979614,-0.07004 1.4908324,0.066596 0.69287,0.1366337 1.642958,0.045188 1.642958,0.045188 0.537209,0.014775 0.430586,-0.4972492 0.430586,-1.0761325 l 0,-0.9648057 c 0,-0.5788833 0.235809,-1.0008281 -0.172222,-1.0761317 0,0 -1.530185,-0.096524 -2.115799,0.055174 -0.585612,0.1516958 -1.2763545,0.055694 -1.2763545,0.055694 L 9.6336179,3.5832848 C 9.6526297,3.0047405 9.1720169,3.0637841 8.6346333,3.0637841 Z"
           inkscape:connector-curvature="0"
           style="fill:#ff001d;fill-opacity:1" />
      </g>
      <path
         d="m 247.75854,-304.73951 c -10.89384,-7.32894 -18.65391,-23.59042 -36.17773,-24.16057 -11.35769,0.37652 -27.58024,16.68562 -39.4553,24.21589 -6.26144,2.47557 -26.39958,18.57182 -28.57683,20.47373 -2.04172,5.23928 3.30631,36.40806 2.53736,42.51837 -1.02554,22.69589 -1.36039,21.20133 -2.98116,42.75122 0.58695,8.51469 2.2177,15.01151 2.35664,23.53728 0.28188,13.25454 -1.79466,33.75541 -0.53686,46.37784 32.91922,1.35744 72.29429,-6.17909 96.95131,-8.19858 9.06507,-0.35617 12.73993,0.34207 21.75187,0.0549 6.11206,-2.10865 5.18082,-18.05861 5.98018,-21.17722 -1.46464,-4.53063 -2.76342,-12.57668 -1.31589,-17.84615 0.52096,-4.32425 3.20254,-7.67621 2.40718,-11.5649 0.003,-6.2988 0.97696,-13.92072 0.73558,-20.37714 -1.57805,-13.10289 -1.14573,-22.54997 -2.21917,-35.28851 3.24988,-11.98408 7.75407,-29.56233 2.13684,-36.72564 -8.64379,-11.02262 -15.28668,-17.04804 -23.59402,-24.59019 z"
         stroke-miterlimit="4"
         label="Capa 1"
         id="imagebot_33"
         inkscape:connector-curvature="0"
         style="fill:#e9d3c6;fill-rule:nonzero;stroke-width:8;stroke-linejoin:round;stroke-miterlimit:4;stroke-dashoffset:0" />
      <path
         d="m -257.68155,-319.29709 c -10.89384,-7.32894 -18.65392,-23.59042 -36.17774,-24.16057 -11.35769,0.37652 -27.58023,16.68562 -39.4553,24.21589 -6.26143,2.47557 -26.39958,18.57182 -28.57683,20.47373 -2.04172,5.23928 3.30632,36.40806 2.53736,42.51837 -1.02553,22.69589 -1.36039,21.20132 -2.98115,42.75122 0.58694,8.51469 2.2177,15.01151 2.35664,23.53728 0.28188,13.25454 -1.79466,33.75541 -0.53687,46.37784 32.91923,1.35744 72.2943,-6.17909 96.95131,-8.19858 9.06508,-0.35617 12.73993,0.34207 21.75188,0.0549 6.11205,-2.10865 5.18082,-18.05861 5.98018,-21.17722 -1.46464,-4.53063 -2.76342,-12.57668 -1.31589,-17.84616 0.52096,-4.32424 3.20254,-7.6762 2.40718,-11.56489 0.003,-6.2988 0.97695,-13.92072 0.73558,-20.37714 -1.57806,-13.10289 -1.14574,-22.54997 -2.21918,-35.28851 3.24989,-11.98408 7.75407,-29.56233 2.13685,-36.72564 -8.6438,-11.02262 -15.28669,-17.04804 -23.59402,-24.59019 z"
         stroke-miterlimit="4"
         label="Capa 1"
         id="imagebot_34"
         inkscape:connector-curvature="0"
         style="fill:#e9d3c6;fill-rule:nonzero;stroke-width:8;stroke-linejoin:round;stroke-miterlimit:4;stroke-dashoffset:0" />
      <path
         d="m -276.10808,-278.80321 c -7.62016,2.35321 -15.40075,0.97765 -23.01987,2.96374 -6.13245,0.83808 -12.19708,-0.79603 -18.20352,1.48568 -5.05626,0.81172 -10.33507,-0.12757 -15.19506,2.30142 -5.99653,0.041 -13.85062,3.14764 -15.05238,9.95477 -0.21351,7.58087 3.00548,14.67582 2.29498,22.33824 -0.16307,10.07081 3.21018,19.56266 2.6929,29.6579 -2.48418,6.27346 -1.61472,12.05828 0.95272,17.50203 1.72967,6.43898 1.22508,13.35126 1.60614,20.03888 0.47164,7.88212 8.43777,9.32157 15.09315,8.39965 6.74693,0.45409 13.40539,0.55442 20.1275,0.9894 7.33534,-1.57561 14.00122,0.91274 21.3145,0.0103 6.26672,-0.92851 12.58635,-1.38838 18.80064,-2.80764 4.58526,-4.12112 6.98396,-11.9261 5.42063,-17.69606 -0.49654,-9.1333 -3.19318,-17.83967 -2.90997,-27.10388 -2.08026,-6.04464 1.0256,-13.28484 -0.99335,-18.89242 -2.12263,-4.63899 -3.40686,-11.47256 -3.28599,-17.21808 -1.8424,-5.02237 -0.97432,-10.10769 -0.55478,-15.43404 -2.60859,-5.16195 -2.63332,-12.24121 -6.55746,-16.25337 -0.76782,-0.336 -1.66351,-0.42375 -2.53079,-0.23647 z m 8.74323,25.39851 c 0.27029,-0.49399 0.15758,-0.28804 0,0 z m 0.45427,1.33319 c 1.32054,0.19107 -0.34695,-1.48415 0,0 z m 0.55879,-0.60625 c 0.22356,-0.53042 -0.73833,0.10833 0,0 z m 1.03773,13.78989 c -0.52888,0.89248 0.71983,0.14137 0,0 z m 0.8323,3.06597 0.7066,-0.27196 -0.7066,0.27196 z m -1.09214,0.61488 c 0.90009,1.49082 1.04876,-1.21933 0,0 z m 0.553,3.29114 c 1.79171,0.164 -0.44158,-1.15158 0,0 z m 0.8926,0.84569 c 2.35982,0.5765 -1.03576,-2.21753 0,0 z m 0.85236,0.45484 0.28423,0.13825 -0.28423,-0.13825 z m -0.67851,0.8163 c -0.52732,1.74663 1.1026,0.37897 0,0 z m -2.67899,64.43202 c -0.71649,-0.54319 0.13409,0.7102 0,0 z m -16.19408,2.26682 c -1.53333,-0.5794 -0.58922,0.99585 0,0 z m -3.87659,0.11107 c -0.5594,-1.02613 -0.68609,1.09931 0,0 z m -0.7974,0.14061 c -1.80961,0.70923 0.75187,1.82726 0,0 z m -23.45748,-0.35074 -0.34733,0.0838 0.34733,-0.0838 z m -9.23442,-1.01166 c -1.68666,-0.0218 2.65437,0.67796 0,0 z m -18.62803,-4.32202 c -0.56218,-1.54595 -1.15879,0.76306 0,0 z m -1.18808,-4.3174 -0.0551,0.042 0.0551,-0.042 z m -5.28924,-62.63731 c -0.40596,-0.93385 -0.33348,1.68702 0,0 z m -0.11879,-0.26507 c 0.89557,-0.21676 -0.31575,-0.60679 0,0 z m 0.54954,-6.64095 c 0.30429,0.26397 0.0274,-0.383 0,0 z m -0.41024,-8.28661 c -1.28147,-0.70327 -1.26298,1.40704 0,0 z m 67.60256,-26.63023 0.0944,0.027 -0.0944,-0.027 z m -7.5165,-0.004 c 2.10519,-1.1106 0.34249,1.25643 0,0 z m 9.96882,5.24424 c 0.86315,-0.24208 -0.10994,0.76338 0,0 z m 0.54382,0.0323 c 0.99488,-0.25041 -0.45658,0.81301 0,0 z m -66.9786,2.73978 c 0.14051,0.6083 -0.67392,-0.19945 0,0 z m 74.09353,5.40427 c 1.73374,0.50389 -1.49208,1.16232 0,0 z m -0.82154,7.78997 c 0.60286,1.08566 -1.56553,-0.88002 0,0 z m -77.62207,2.95868 c 3.61256,1.13546 -2.52931,0.0347 0,0 z m 0.74113,6.66749 c 0.73341,0.83341 -1.03519,0.0785 0,0 z m 78.90606,7.30827 c -0.30906,0.35737 -0.61968,-0.64504 0,0 z m 3.29949,15.12419 c 2.58219,0.50962 -1.185,2.01331 0,0 z m -79.19927,12.46115 0.24208,0.0501 -0.24208,-0.0501 z m 2.71804,37.82431 c 0.75694,0.14938 -0.65371,0.74601 0,0 z m 7.9434,3.92186 c 0.84485,0.93696 -1.26791,0.58909 0,0 z m 57.34128,2.87378 c 1.66591,0.19344 -0.1171,2.04924 0,0 z m 3.1685,0.3148 c 1.79057,2.58122 -3.47513,-0.62637 0,0 z m 3.81874,0.41013 c 0.0952,0.96059 -1.08425,-0.36726 0,0 z m -8.00453,0.18271 c 0.52999,0.43318 -1.08898,-0.14895 0,0 z m 4.14797,0.52509 c 0.12168,0.33338 -0.43385,-0.0922 0,0 z m -3.31226,0.55998 c 1.33547,0.83481 -1.30391,0.10405 0,0 z m -54.31739,-0.0521 c 1.11841,-0.46066 -0.0823,0.63499 0,0 z m -5.14711,-0.003 c 1.05996,0.95008 -2.09531,-0.18335 0,0 z"
         label="Capa 1"
         id="imagebot_35"
         inkscape:connector-curvature="0"
         style="fill:#9788af;fill-rule:evenodd;stroke-width:1px" />
      <path
         d="m 184.05768,-279.00622 c 8.06711,1.98612 16.50619,0.61914 24.63323,2.1489 6.58905,-0.49591 13.19486,0.0876 19.6501,0.81092 6.46105,-0.0972 12.73773,1.74476 19.04968,2.84271 6.59436,1.8783 8.52207,9.66766 6.01409,15.43241 -1.58564,6.29011 -2.81184,12.6932 -2.86908,19.19247 -0.91858,8.75464 -4.52775,17.30074 -3.76228,26.16892 1.2196,6.61931 0.2288,13.61612 -3.03065,19.51719 -2.58603,7.86611 0.29879,17.24385 -5.17987,24.16472 -5.31877,4.35194 -12.73518,2.16593 -18.99163,3.25351 -6.53771,0.22893 -13.06662,2.24567 -19.59537,0.94431 -7.33055,0.50684 -14.87225,2.70527 -22.1113,0.39286 -5.61324,0.48529 -13.15175,-0.0926 -15.63246,-6.09711 -2.9933,-8.5978 0.31514,-17.49205 1.8676,-26.01547 1.32145,-7.50104 2.22464,-15.08349 3.2754,-22.61727 -0.57815,-5.51499 0.5631,-10.81822 3.00226,-15.7428 1.78273,-6.05341 2.29491,-12.43386 3.49988,-18.57866 -0.37155,-6.49738 0.72603,-13.25724 4.21532,-18.84559 0.50743,-3.07165 1.85871,-7.83988 5.96508,-6.97202 z m -10.24929,25.80698 c -0.1974,-0.398 -0.17413,-0.35089 0,0 z m -0.53328,1.35433 c -1.25458,0.15828 0.5867,-1.1903 0,0 z m -0.5223,-0.58676 c -0.14889,-0.62007 0.72155,0.28626 0,0 z m -1.85813,13.87068 c 0.73413,0.73656 -0.84183,0.24507 0,0 z m -1.01436,3.10669 -0.68367,-0.24364 0.68367,0.24364 z m 1.05482,0.57513 c -0.78104,1.66901 -0.9569,-1.21188 0,0 z m -0.74856,3.32212 c -1.61406,0.5078 0.39941,-1.2296 0,0 z m -0.94234,0.88203 c -2.26739,0.58047 1.23156,-1.92218 0,0 z m -0.87875,0.48866 -0.27887,0.14266 0.27887,-0.14266 z m 0.62931,0.79292 c 0.72157,1.65706 -1.20511,0.4113 0,0 z m -1.15963,64.52283 c 0.68048,-0.77336 -0.0454,0.75177 0,0 z m 16.04737,1.65781 c 1.43986,-0.92198 0.55127,1.06058 0,0 z m 3.86722,-0.0361 c 0.56463,-1.07331 0.49615,1.09655 0,0 z m 0.78844,0.1107 c 1.86351,0.59023 -1.08256,1.72636 0,0 z m 23.46143,-1.24368 0.31317,0.0651 -0.31317,-0.0651 z m 9.28798,-1.36596 c 1.50005,0.0957 -3.38984,0.6877 0,0 z m 18.87192,-5.04328 c 0.47027,-1.74496 1.20088,0.8414 0,0 z m 1.44429,-4.37548 0.053,0.04 -0.053,-0.04 z m 9.01528,-63.0257 c 0.63776,-0.91168 -0.09,1.99595 0,0 z m 0.13444,-0.27033 c -0.94803,0.0495 0.38236,-0.72711 0,0 z m -0.15369,-6.63998 c -0.29876,0.33675 -0.0178,-0.40981 0,0 z m 0.90326,-8.32695 c 1.15078,-0.75633 0.75883,1.34698 0,0 z m -65.96775,-24.13916 -0.096,0.031 0.096,-0.031 z m 7.51125,-0.28794 c -1.31748,-1.24906 -0.81884,1.08339 0,0 z m -10.27392,5.63886 c -0.8429,-0.40192 0.10107,0.85165 0,0 z m -0.54533,0.0527 c -1.00021,-0.3739 0.40737,0.87101 0,0 z m 66.76711,0.20105 c -0.17693,0.67362 0.68418,-0.35355 0,0 z m -74.36182,8.23796 c -1.62375,0.49049 1.32746,0.86896 0,0 z m 0.35711,7.78198 c -0.54991,1.21352 1.70338,-1.35145 0,0 z m 77.3898,0.0157 c -3.1199,0.80294 1.97917,0.27548 0,0 z m -1.13765,6.71553 c -0.96159,0.78592 1.10095,0.0935 0,0 z m -79.28417,10.3306 c 0.51832,0.35975 0.32052,-0.84774 0,0 z m -4.19754,15.2948 c -2.72137,0.33144 1.08942,2.15365 0,0 z m 78.39987,9.48686 -0.24483,0.0599 0.24483,-0.0599 z m -4.96831,38.04073 c -0.84641,0.23718 0.7968,0.6133 0,0 z m -8.17131,4.23562 c -0.95706,0.90782 1.28099,0.40964 0,0 z m -57.47084,5.06289 c -1.77339,0.18661 0.31822,1.96036 0,0 z m -3.18502,0.43621 c -1.60159,2.791 3.08265,-1.09796 0,0 z m -3.84038,0.55658 c -0.10904,1.08365 1.05834,-0.67307 0,0 z m 7.98787,-0.12111 c -0.29962,0.63555 1.15358,-0.57712 0,0 z m -4.17625,0.68431 c -0.11369,0.38565 0.43301,-0.21178 0,0 z m 3.27649,0.43574 c -1.73797,0.73933 1.51319,0.20786 0,0 z m 54.28126,-2.11768 c -0.85158,-0.82823 -0.25418,0.77057 0,0 z m 5.1435,-0.20154 c -1.05499,1.18358 2.32004,-0.68264 0,0 z"
         label="Capa 1"
         id="imagebot_36"
         inkscape:connector-curvature="0"
         style="fill:#9788af;fill-rule:evenodd;stroke-width:1px" />
      <path
         id="imagebot_21-4"
         d="m -92.660061,151.39602 c -12.022039,-3.44125 -25.277569,-3.44152 -37.838389,-3.677 -20.59701,1.71991 -41.63506,-3.30433 -62.32897,-1.95437 -10.84234,0.53084 -22.09104,-0.36554 -32.59481,1.25097 -7.98308,4.85385 -1.48208,14.10321 -1.51219,20.69856 0.0142,9.62369 -1.22859,19.22323 -2.493,28.73242 0.86719,7.82416 -1.41319,15.50138 -2.81611,23.12183 -4.05424,10.33189 5.03562,21.38536 0.34186,31.69047 -1.36388,8.21845 -2.93476,16.6664 -0.61012,25.01314 5.4027,8.04589 22.19934,3.93073 31.06588,9.53469 12.39475,3.47241 25.90741,0.8782 38.47671,3.8969 14.25715,2.08633 28.61659,0.88504 42.92011,1.35563 10.25579,-0.80047 26.819837,6.99183 32.055014,-1.81467 2.214596,-9.98658 6.692804,-20.42819 1.000247,-30.62396 -2.89194,-6.81304 -1.524857,-13.68982 -1.803125,-20.48476 -1.48067,-8.27711 -2.741802,-16.69009 -0.162567,-24.74234 -0.131473,-8.28146 -4.615703,-16.62054 -2.530858,-24.84756 1.394958,-7.16245 2.213293,-14.40389 1.589285,-21.69075 1.169681,-4.97284 5.559455,-11.44361 -2.758967,-15.4592 z m 1.964101,29.6114 0.594211,0.0404 -0.594211,-0.0404 z m 6.551318,87.21134 c -0.653518,1.65021 2.657693,-0.29479 0,0 z m -1.12153,4.04802 c 0.994213,0.58801 -0.06715,-0.57943 0,0 z m 0.523145,-0.0116 c 3.094047,0.97191 -0.781111,-1.19798 0,0 z m 0.06423,0.0348 0.521656,-0.0122 -0.521656,0.0122 z m 0.537252,-0.0213 c 0.972226,-0.18377 0.62721,-0.11858 0,0 z m -0.44241,0.0775 -0.07484,0.01 0.07484,-0.01 z m -0.07484,0.01 -0.414573,0.0193 0.414573,-0.0193 z m 0.14359,0.87588 c 1.2734,-0.61887 -1.492366,-0.42397 0,0 z m -2.452481,11.04988 c 0.878153,-0.36702 -1.227993,-0.63237 0,0 z m 0.02404,-0.39664 c 0.217239,-0.63744 -1.499207,-0.24948 0,0 z m -1.057827,1.60448 c -0.957389,0.0183 0.896604,0.45114 0,0 z m -24.256607,5.87053 c -0.82853,-0.12662 0.5807,0.60563 0,0 z m -6.38783,-0.5489 c 0.23288,0.4908 0.56069,-0.48746 0,0 z m 0.14229,0.13608 c -2.66342,0.28206 1.53444,0.97937 0,0 z m -2.04494,0.12051 c -2.15622,0.42781 1.06031,0.29259 0,0 z m -92.22619,-9.32342 c -2.58587,-0.22051 1.20875,1.67614 0,0 z m -3.065,-0.0535 c -1.51843,0.4093 1.6236,0.7564 0,0 z m -0.77934,-0.15457 -0.17607,0.0429 0.17607,-0.0429 z m -13.63393,-37.28407 c 2.02923,-0.20068 -1.6978,-0.87838 0,0 z m 1.85516,-89.59283 c -1.03989,-0.54048 -0.27824,0.47878 0,0 z m -0.43985,0.0693 -0.52652,0.18041 0.52652,-0.18041 z m -0.12747,-0.0205 c 2.57508,-0.56803 -1.92237,-0.78622 0,0 z m -0.16422,-1.73056 c 3.02305,-0.48029 -2.98343,-0.89827 0,0 z m 0.29697,-0.72201 c 1.53261,1.33219 -0.34684,-0.75582 0,0 z m -0.13477,-1.99678 c -0.65625,-0.17075 0.18206,0.74278 0,0 z m 128.7146,-0.8357 c 0.737258,-0.13407 -0.65673,-0.4653 0,0 z m 0.283683,-0.11927 0.0562,0.11737 -0.0562,-0.11737 z m 2.871797,9.71766 c -1.54312,1.67798 -2.239247,-2.04682 0,0 z m -6.43141,-1.53177 -0.0803,0.22423 0.0803,-0.22423 z m 0.0324,0.29721 c 0.98684,0.53764 -0.90503,0.07 0,0 z m -0.14844,-0.0374 c -0.1496,0.50673 -0.70692,-0.52163 0,0 z m 1.20717,0.67028 c -1.55653,0.83487 -1.38312,-0.9099 0,0 z m -0.58892,-0.20096 c -4.18351,-2.16179 0.47836,1.06059 0,0 z m -3.56209,-0.18421 c 0.82948,1.89082 -0.32019,4.2273 0,0 z m -121.55745,-9.54108 c 2.42905,0.2324 -2.30235,1.0541 0,0 z m 137.986899,64.46925 c 0.554867,0.72362 -0.886071,-0.0171 0,0 z m 5.532052,55.57764 c 0.879344,0.52001 -1.307561,0.0648 0,0 z"
         label="Capa 1"
         inkscape:connector-curvature="0"
         style="fill:#9788af;fill-opacity:1;fill-rule:evenodd;stroke-width:1px" />
      <path
         id="imagebot_22-4"
         d="m -210.77274,-62.149084 c 14.26937,0.75187 28.78445,-2.34745 43.10343,-2.12141 11.40144,-1.77535 22.9612,-2.33612 34.27582,-2.7113 11.22653,-1.3018 22.36442,-0.38221 33.474615,-0.30836 11.69483,0.90203 15.98008,9.33358 12.30772,16.29968 -2.00521,7.38842 -3.37169,14.8381 -2.69339,22.18055 -0.54998,10.04566 -5.80483,20.35266 -3.41204,30.21566 2.91355,7.24227 2.02758,15.31817 -2.93555,22.57675 -3.556625,9.35096 2.58349,19.39777 -6.117615,28.2162 -8.73043,5.89097 -21.89193,4.79354 -32.64403,7.1749 -11.34409,1.4647 -22.45889,4.94464 -33.97056,4.68132 -12.68986,1.92438 -25.54454,5.79614 -38.41266,4.52337 -9.70542,1.58327 -22.8868,2.32256 -27.92032,-3.99347 -6.23546,-9.1469 -1.54535,-19.79111 0.13485,-29.69291 1.40075,-8.70591 2.06425,-17.42631 2.99023,-26.11918 -1.66564,-6.11476 -0.31531,-12.30804 3.3379,-18.3136 2.37635,-7.1579 2.50359,-14.45017 3.86406,-21.60451 -1.42389,-7.26123 -0.32384,-15.08964 5.07649,-22.03776 0.51498,-3.55883 2.29469,-9.18723 9.54105,-8.96593 z m -14.73865,31.00432 c -0.39099,-0.41252 -0.34487,-0.36367 0,0 z m -0.76548,1.62633 c -2.16324,0.40997 0.87802,-1.45114 0,0 z m -0.97869,-0.56557 c -0.33319,-0.67208 1.2893,0.18976 0,0 z m -1.5719,15.99044 c 1.36507,0.69546 -1.43493,0.43187 0,0 z m -1.39254,3.69194 -1.21831,-0.14874 1.21831,0.14874 z m 1.90357,0.45417 c -1.15877,2.02693 -1.80946,-1.19062 0,0 z m -0.90444,3.88576 c -2.74667,0.87071 0.54757,-1.46075 0,0 z m -1.5335,1.16902 c -3.87436,1.07317 1.91208,-2.39574 0,0 z m -1.46999,0.71341 -0.46798,0.21235 0.46798,-0.21235 z m 1.18951,0.77837 c 1.45339,1.7361 -2.04692,0.68633 0,0 z m 5.70521,73.00271 c 1.09105,-0.99809 0.011,0.8564 0,0 z m 28.11071,-1.09106 c 2.39409,-1.30581 1.08578,1.09473 0,0 z m 6.72221,-0.7542 c 0.85364,-1.315 0.99421,1.1454 0,0 z m 1.38463,-0.0207 c 3.31197,0.32203 -1.67636,2.14735 0,0 z m 40.6592,-5.73239 0.5525,0.0154 -0.5525,-0.0154 z m 15.99176,-3.25477 c 2.62054,-0.1693 -5.81389,1.4013 0,0 z m 32.22161,-9.17188 c 0.609125,-2.05525 2.189475,0.72763 0,0 z m 1.988495,-5.20251 0.0969,0.0349 -0.0969,-0.0349 z m 8.13781,-72.76338 c 1.00019,-1.14626 0.0823,2.26826 0,0 z m 0.20149,-0.32983 c -1.64305,0.23093 0.57804,-0.8908 0,0 z m -1.06201,-7.46224 c -0.47936,0.43499 -0.08,-0.45905 0,0 z m 0.57451,-9.56037 c 1.91111,-1.06554 1.48109,1.37953 0,0 z m -117.631225,-15.05848 -0.16328,0.0526 0.16328,-0.0526 z m 13.03036,-1.71092 c -2.44106,-1.16593 -1.2946,1.37329 0,0 z m -17.19525,8.25719 c -1.51422,-0.29793 0.27773,0.94205 0,0 z m -0.94218,0.16049 c -1.78448,-0.23719 0.81282,0.90745 0,0 z m 116.156655,-12.0938 c -0.22715,0.79251 1.14772,-0.52516 0,0 z m -128.356645,23.01536 c -2.7656,0.85299 2.41294,0.73538 0,0 z m 1.55252,8.71308 c -0.81128,1.4704 2.80106,-1.83893 0,0 z m 134.611245,-14.26297 c -5.33055,1.48159 3.47545,-0.0544 0,0 z m -1.17506,7.7858 c -1.57853,1.064 1.9262,-0.0972 0,0 z m -136.667965,26.28449 c 0.94461,0.3102 0.45605,-1.01543 0,0 z m -5.47054,18.02879 c -4.6938,0.87605 2.15263,2.22844 0,0 z m 137.501625,-3.76508998 -0.41868,0.1127 0.41868,-0.1127 z m -4.08892,43.83084998 c -1.443825,0.42374 1.45933,0.54482 0,0 z m -13.705975,6.28618 c -1.55604,1.20066 2.27714,0.22564 0,0 z m -99.35702,16.31658 c -3.06223,0.5378 0.78814,2.15283 0,0 z m -5.48771,1.07988 c -2.45172,3.44406 5.23047,-1.80743 0,0 z m -6.61322,1.3365 c -0.06,1.24265 1.7603,-0.95452 0,0 z m 13.87936,-1.61061 c -0.44509,0.77224 1.93744,-0.86386 0,0 z m -7.18214,1.54265 c -0.1516,0.45603 0.72782,-0.3188 0,0 z m 5.75118,-0.11306 c -2.93449,1.15483 2.65687,-0.0447 0,0 z m 94.16164,-12.40558 c -1.58037,-0.77723 -0.34989,0.91617 0,0 z m 8.92231,-1.17653 c -1.69335,1.52991 3.95372,-1.19813 0,0 z"
         label="Capa 1"
         inkscape:connector-curvature="0"
         style="fill:#9788af;fill-rule:evenodd;stroke-width:1px" />
      <path
         id="imagebot_18-0"
         d="m 316.80822,-58.485434 c -13.95746,1.35179 -27.70616,-1.91903 -41.55692,-1.00907 -14.16774,-1.07698 -27.91048,-2.95215 -42.15215,-2.1945 -10.67891,-1.94943 -21.11511,0.0632 -31.91584,-0.18765 -11.34986,0.28076 -22.42185,5.40507 -21.46331,12.16096 -0.96771,8.30847 1.96654,16.66418 -1.172,24.87587 -2.50018,11.9936 1.31764,24.23175961 -2.77807,36.11837 -4.16414,6.02573 -7.2734,12.34682 -2.81323,18.6861 3.39823,9.17455 -2.00167,18.32 -1.3452,27.51172 -1.18106,7.81767 11.89269,11.69659 24.18795,11.76498 12.22427,1.8827 24.72902,3.07383 36.87029,5.3953 13.13203,-0.87824 24.62871,3.53381 37.47683,4.12364 12.85069,1.20153 25.91671,0.66797 38.87521,0.83349 7.46275,-3.68912 12.74146,-9.45798 14.08265,-14.85132 1.02832,-9.79713 1.09987,-19.62087 0.50477,-29.4276 3.08171,-8.54687 -0.29533,-17.50894 4.62931,-25.9203903 1.81104,-6.1624001 -3.87475,-11.8235401 -2.49575,-18.4221101 -1.15334,-5.8187996 2.06553,-11.4760596 -0.18962,-17.2646396 2.21192,-5.43682 5.75319,-11.064 2.14621,-16.73422 -4.42603,-4.96587 1.7206,-13.05715 -9.50174,-15.4161 l -1.38939,-0.0428 0,0 0,-6e-5 z m 9.67382,32.30733 c 0.5979,-0.51443 0.37014,-0.31842 0,0 z m 0.49875,1.69481 c 2.33846,0.63721 -0.18653,-2.2336 0,0 z m 1.18979,-0.61565 c 0.616,-0.53752 -1.39615,-0.0885 0,0 z m -1.61335,16.7895096 c -1.31639,0.9192 1.3304,0.3738 0,0 z m 0.75473,3.85475 1.31126,-0.17479 -1.31126,0.17479 z m -2.17916,0.51794 c 1.37794,1.98046 2.2152,-1.26643 0,0 z m 0.17906,4.06894001 c 2.9163,0.39779 -0.46819,-1.31572001 0,0 z m 1.43539,1.19755999 c 4.46723,1.05533 -1.75347,-2.80474 0,0 z m 1.46089,0.71954 0.50026,0.22815 -0.50026,-0.22815 z m -1.46501,0.84394 c -1.4922,1.91806 1.97569,0.76422 0,0 z M 305.27174,79.815456 c -1.2232,-0.71618 0.15082,0.8718 0,0 z m -30.55464,-0.55547 c -2.80248,-0.96373 -1.22731,1.06089 0,0 z m -7.20368,-0.65184 c -0.83063,-1.34401 -1.52206,1.18421 0,0 z m -1.51168,0.008 c -3.67182,0.56463 1.11121,2.29057 0,0 z m -43.32765,-5.17396 -0.67618,0.0311 0.67618,-0.0311 z m -16.83265,-3.08716 c -3.12273,-0.36309 4.78958,1.35766 0,0 z m -33.37089,-8.97024 c -0.63709,-1.94854 -2.39209,0.64908 0,0 z m -1.09266,-5.43138 -0.11276,0.0389 0.11276,-0.0389 z m 6.2632,-76.3787 c -0.5336,-1.1908 -1.03048,1.98345 0,0 z m -0.15128,-0.34278 c 1.76444,-0.11931 -0.51708,-0.75509 0,0 z m 2.71922,-7.87295 c 0.54485,0.34708 0.0937,-0.45111 0,0 z m 1.36439,-10.04581 c -2.32873,-1.09127 -2.60074,1.42528 0,0 z m 131.95029,-18.32096 0.1671,0.052 -0.1671,-0.052 z m -13.91194,-1.5254 c 3.55725,-0.68399 0.51205,1.38545 0,0 z m 17.10725,8.3246 c 1.69361,-0.0316 -0.49344,0.84129 0,0 z m 0.99825,0.14904 c 1.9136,10e-4 -1.17617,0.81395 0,0 z M 193.0444,-60.335424 c 0.22498,0.73432 -1.26457,-0.3131 0,0 z m 135.75454,21.50794 c 3.06853,0.98456 -3.12534,1.04333 0,0 z m -3.51706,9.19925 c 0.90491,1.30051 -2.69088,-1.22779 0,0 z M 180.8532,-41.796844 c 6.43956,2.09408 -4.72682,-0.46734 0,0 z m -0.33731,8.16621 c 1.30175,1.12401 -1.99866,-0.0639 0,0 z m 144.1743,24.7724896 c -0.64479,0.35497 -0.99801,-0.86304 0,0 z m 2.23066,18.8518001 c 4.7141,1.2150103 -2.91679,2.1077903 0,0 z m -149.78311,-1.06354 0.43486,0.10976 -0.43486,-0.10976 z m -4.6632,46.0257703 c 1.38714,0.38847 -1.50861,0.71267 0,0 z m 13.69757,6.32452 c 1.38169,1.27483 -2.50891,0.46037 0,0 z m 105.39621,15.07206 c 2.78538,0.74644 -1.10565,1.93554 0,0 z m 5.7838,1.02044 c 2.9098,3.32611 -6.43819,-1.22916 0,0 z m 6.9631,1.2667 c 0.1156,1.1313 -2.02659,-0.55763 0,0 z m -14.86244,-1.40195 c 0.89659,0.60694 -1.96147,-0.36627 0,0 z m 7.54287,1.47158 c 0.20352,0.40606 -0.80894,-0.16111 0,0 z m -6.27409,0.002 c 2.28658,1.28602 -2.36553,-0.14501 0,0 z m -100.5227,-11.06655 c 2.18493,-0.2354 -0.39126,0.68718 0,0 z m -9.52487,-1.04975 c 1.79617,1.35173 -3.80586,-0.5929 0,0 z"
         label="Capa 1"
         inkscape:connector-curvature="0"
         style="fill:#9788af;fill-rule:evenodd;stroke-width:1px" />
      <path
         id="imagebot_13-6"
         d="m -310.73433,-64.301201 c -14.5026,2.8128 -29.08352,1.16863 -43.56209,3.54254 -11.60779,1.00175 -22.9392,-0.95146 -34.39625,1.77585 -9.57796,0.97021 -19.47016,-0.15251 -28.77538,2.75079 -11.30373,0.0491 -26.29246,3.76234 -28.96637,11.89887 -0.85788,9.0613 4.78243,17.54168 2.983,26.70046 -0.91244,12.0374995 4.87456,23.3830495 3.29311,35.44967 -5.05873,7.49864 -3.76768,14.41311 0.74389,20.91998 2.87291,7.69632 1.50662,15.95851 1.82295,23.9521 0.41525,9.42139 15.342,11.142 27.94034,10.03996 12.68822,0.54276 25.23092,0.66274 37.8735,1.1827 13.9191,-1.88339 26.33235,1.0909 40.1694,0.0122 11.86629,-1.1099 23.8041,-1.6595 35.60107,-3.35604 8.88913,-4.92587 13.87877,-14.25508 11.27916,-21.15174 -0.38702,-10.91694 -4.94607,-21.3235 -3.85565,-32.39694 -3.55735,-7.2250504 2.73108,-15.8790805 -0.73699,-22.5817205 -3.72161,-5.5449805 -5.73134,-13.7129995 -5.15829,-20.5806295 -3.17047,-6.00311 -1.22891,-12.08144 -0.11817,-18.44805 -4.6061,-6.16994 -4.22733,-14.63169 -11.38182,-19.42738 -1.42687,-0.40164 -3.10966,-0.50645 -4.7554,-0.28267 z m 14.9517,30.35847 c 0.53906,-0.5904 0.31427,-0.34426 0,0 z m 0.77602,1.5935 c 2.47724,0.22846 -0.5647,-1.7739 0,0 z m 1.08954,-0.7246 c 0.45321,-0.63402 -1.39798,0.12947 0,0 z m 1.12716,16.48289 c -1.05037,1.06674 1.34812,0.16895 0,0 z m 1.38437,3.66467 1.34801,-0.32506 -1.34801,0.32506 z m -2.09524,0.73492 c 1.60677,1.781989 2.04981,-1.45745 0,0 z m 0.84446,3.9338595 c 3.36684,0.19611 -0.76305,-1.3764 0,0 z m 1.63142,1.01082 c 4.41273,0.68921 -1.81883,-2.65047 0,0 z m 1.57905,0.5437 0.52735,0.16532 -0.52735,-0.16532 z m -1.3278,0.9757 c -1.09875,2.08773 2.05522,0.45308 0,0 z m -8.92037,77.0146705 c -1.31769,-0.64923 0.21005,0.84887 0,0 z m -30.6561,2.70951 c -2.85497,-0.69256 -1.17032,1.19033 0,0 z m -7.31263,0.13273 c -0.99261,-1.2265 -1.35909,1.31403 0,0 z m -1.51124,0.16802 c -3.45307,0.84772 1.30719,2.18412 0,0 z m -44.18771,-0.41913 -0.65955,0.0999 0.65955,-0.0999 z m -17.3427,-1.2093 c -3.17752,-0.0256 4.96179,0.81032 0,0 z m -34.8473,-5.16604 c -0.96662,-1.84781 -2.22975,0.91214 0,0 z m -1.97968,-5.16051 -0.10627,0.0498 0.10627,-0.0498 z m -6.20469,-74.8694 c -0.70895,-1.11621 -0.72982,2.016399 0,0 z m -0.20793,-0.31686 c 1.70084,-0.25907 -0.5586,-0.72531 0,0 z m 1.43472,-7.93789 c 0.55762,0.31553 0.0747,-0.45778 0,0 z m -0.27523,-9.90481 c -2.37287,-0.84061 -2.46482,1.68183 0,0 z m 129.00611,-31.83068 0.17618,0.0325 -0.17618,-0.0325 z m -14.16619,-0.002 c 4.03428,-1.32754 0.57,1.50175 0,0 z m 18.47248,6.26828 c 1.64131,-0.28938 -0.25305,0.91244 0,0 z m 1.02299,0.0386 c 1.89,-0.29927 -0.90937,0.97179 0,0 z m -126.39473,3.27485 c 0.22824,0.72715 -1.25811,-0.23842 0,0 z m 139.31439,6.4597 c 3.23722,0.60226 -2.88185,1.38933 0,0 z m -2.01634,9.31121 c 1.07092,1.29769 -2.89758,-1.05191 0,0 z m -146.46695,3.53648 c 6.74015,1.35719 -4.76901,0.042 0,0 z m 0.99617,7.9695 c 1.33212,0.99623 -1.95565,0.0936 0,0 z m 148.26985,8.73552 c -0.60396,0.42718 -1.12914,-0.77103 0,0 z m 5.30959,18.0776395 c 4.83584,0.60917 -2.35425,2.40647 0,0 z m -150.01034,14.8946605 0.45313,0.0604 -0.45313,-0.0604 z m 2.84982,45.21081 c 1.41755,0.17864 -1.27683,0.89168 0,0 z m 14.73474,4.6878 c 1.53592,1.11995 -2.42493,0.70409 0,0 z m 107.89459,3.43497 c 3.12802,0.23125 -0.3438,2.4494 0,0 z m 5.95257,0.3763 c 3.21947,3.08532 -6.51172,-0.74868 0,0 z m 7.17228,0.4902 c 0.12176,1.14812 -2.02135,-0.43896 0,0 z m -15.09659,0.21844 c 0.97282,0.51771 -2.04338,-0.17809 0,0 z m 7.78587,0.62756 c 0.20929,0.39845 -0.81217,-0.10997 0,0 z m -6.27605,0.66936 c 2.4667,0.99786 -2.46363,0.12435 0,0 z m -102.36523,-0.0623 c 2.13549,-0.55069 -0.19329,0.75892 0,0 z m -9.69953,-0.007 c 1.94055,1.13553 -3.93786,-0.21919 0,0 z"
         label="Capa 1"
         inkscape:connector-curvature="0"
         style="fill:#9788af;fill-rule:evenodd;stroke-width:1px" />
      <path
         id="imagebot_21-4-7"
         d="m 111.2152,-65.209816 c -12.02204,-3.44125 -25.27757,-3.44152 -37.83839,-3.677 -20.59701,1.71991 -41.63506,-3.30433 -62.32897,-1.95437 -10.84233989,0.53084 -22.09104,-0.36554 -32.59481,1.25097 -7.98308,4.85385 -1.48208,14.10321 -1.51219,20.69856 0.0142,9.62369 -1.22859,19.22323 -2.493,28.73242 0.86719,7.82416 -1.41319,15.5013802 -2.81611,23.1218302 -4.05424,10.3318898 5.03562,21.3853598 0.34186,31.6904698 -1.36388,8.21845 -2.93476,16.6664 -0.61012,25.01314 5.4027,8.04589 22.1993401,3.93073 31.0658801,9.53469 12.3947499,3.47241 25.9074099,0.8782 38.4767099,3.8969 14.25715,2.08633 28.61659,0.88504 42.92011,1.35563 10.25579,-0.80047 26.81984,6.99183 32.05501,-1.81467 2.2146,-9.98658 6.69281,-20.42819 1.00025,-30.62396 -2.89194,-6.81304 -1.52486,-13.68982 -1.80313,-20.48476 -1.48067,-8.27711 -2.7418,-16.6900897 -0.16256,-24.7423398 -0.13148,-8.2814602 -4.61571,-16.6205402 -2.53086,-24.8475602 1.39496,-7.16245 2.21329,-14.40389 1.58928,-21.69075 1.16969,-4.97284 5.55946,-11.44361 -2.75896,-15.4592 z m 1.9641,29.6114 0.59421,0.0404 -0.59421,-0.0404 z m 6.55132,87.21134 c -0.65352,1.65021 2.65769,-0.29479 0,0 z m -1.12153,4.04802 c 0.99421,0.58801 -0.0672,-0.57943 0,0 z m 0.52314,-0.0116 c 3.09405,0.97191 -0.78111,-1.19798 0,0 z m 0.0642,0.0348 0.52166,-0.0122 -0.52166,0.0122 z m 0.53725,-0.0213 c 0.97223,-0.18377 0.62721,-0.11858 0,0 z m -0.44241,0.0775 -0.0748,0.01 0.0748,-0.01 z m -0.0748,0.01 -0.41457,0.0193 0.41457,-0.0193 z m 0.14359,0.87588 c 1.2734,-0.61887 -1.49236,-0.42397 0,0 z m -2.45248,11.04988 c 0.87816,-0.36702 -1.22799,-0.63237 0,0 z m 0.024,-0.39664 c 0.21724,-0.63744 -1.4992,-0.24948 0,0 z m -1.05782,1.60448 c -0.95739,0.0183 0.8966,0.45114 0,0 z m -24.25661,5.87053 c -0.82853,-0.12662 0.5807,0.60563 0,0 z m -6.38783,-0.5489 c 0.23288,0.4908 0.56069,-0.48746 0,0 z m 0.14229,0.13608 c -2.66342,0.28206 1.53444,0.97937 0,0 z m -2.04494,0.12051 c -2.15622,0.42781 1.06031,0.29259 0,0 z m -92.2261899,-9.32342 c -2.5858701,-0.22051 1.20875,1.67614 0,0 z m -3.0650001,-0.0535 c -1.51843,0.4093 1.6236,0.7564 0,0 z m -0.77934,-0.15457 -0.17607,0.0429 0.17607,-0.0429 z m -13.6339,-37.28407 c 2.02923,-0.20068 -1.6978,-0.87838 0,0 z m 1.85516,-89.59283 c -1.03989,-0.54048 -0.27824,0.47878 0,0 z m -0.43985,0.0693 -0.52652,0.18041 0.52652,-0.18041 z m -0.12747,-0.0205 c 2.57508,-0.56803 -1.92237,-0.78622 0,0 z m -0.16422,-1.73056 c 3.02305,-0.48029 -2.98343,-0.89827 0,0 z m 0.29697,-0.72201 c 1.53261,1.33219 -0.34684,-0.75582 0,0 z m -0.13477,-1.99678 c -0.65625,-0.17075 0.18206,0.74278 0,0 z m 128.7146,-0.8357 c 0.73726,-0.13407 -0.65673,-0.4653 0,0 z m 0.28368,-0.11927 0.0562,0.11737 -0.0562,-0.11737 z m 2.8718,9.71766 c -1.54312,1.67798 -2.23925,-2.04682 0,0 z m -6.43141,-1.53177 -0.0803,0.22423 0.0803,-0.22423 z m 0.0324,0.29721 c 0.98684,0.53764 -0.90503,0.07 0,0 z m -0.14844,-0.0374 c -0.1496,0.50673 -0.70692,-0.52163 0,0 z m 1.20717,0.67028 c -1.55653,0.83487 -1.38312,-0.9099 0,0 z m -0.58892,-0.20096 c -4.18351,-2.16179 0.47836,1.06059 0,0 z m -3.56209,-0.18421 c 0.82948,1.89082 -0.32019,4.2273 0,0 z m -121.55745,-9.54108 c 2.42905,0.2324 -2.30235,1.0541 0,0 z m 137.9869,64.4692502 c 0.55486,0.72362 -0.88607,-0.0171 0,0 z m 5.53205,55.5776398 c 0.87934,0.52001 -1.30756,0.0648 0,0 z"
         label="Capa 1"
         inkscape:connector-curvature="0"
         style="fill:#9788af;fill-opacity:1;fill-rule:evenodd;stroke-width:1px" />
    </g>
  </g>
</svg>
